<mxfile host="app.diagrams.net" agent="Mozilla/5.0 (Windows NT 10.0; Win64; x64) AppleWebKit/537.36 (KHTML, like Gecko) Chrome/132.0.0.0 Safari/537.36" version="26.0.10">
  <diagram name="Страница — 1" id="prlMVYG3YetY9wyHjF3G">
    <mxGraphModel dx="2261" dy="1915" grid="1" gridSize="10" guides="1" tooltips="1" connect="1" arrows="1" fold="1" page="1" pageScale="1" pageWidth="827" pageHeight="1169" math="0" shadow="0">
      <root>
        <mxCell id="0" />
        <mxCell id="1" parent="0" />
        <mxCell id="EHZESH3UXX7UXrum0o9o-1" value="Администратор" style="shape=umlActor;verticalLabelPosition=bottom;verticalAlign=top;html=1;outlineConnect=0;" vertex="1" parent="1">
          <mxGeometry x="550" y="230" width="30" height="60" as="geometry" />
        </mxCell>
        <mxCell id="EHZESH3UXX7UXrum0o9o-2" value="Студент" style="shape=umlActor;verticalLabelPosition=bottom;verticalAlign=top;html=1;outlineConnect=0;" vertex="1" parent="1">
          <mxGeometry x="210" y="230" width="30" height="60" as="geometry" />
        </mxCell>
        <mxCell id="EHZESH3UXX7UXrum0o9o-6" value="Пользователь" style="shape=umlActor;verticalLabelPosition=bottom;verticalAlign=top;html=1;outlineConnect=0;" vertex="1" parent="1">
          <mxGeometry x="380" y="30" width="30" height="60" as="geometry" />
        </mxCell>
        <mxCell id="EHZESH3UXX7UXrum0o9o-7" value="Регистрация" style="ellipse;whiteSpace=wrap;html=1;" vertex="1" parent="1">
          <mxGeometry x="230" y="-130" width="120" height="80" as="geometry" />
        </mxCell>
        <mxCell id="EHZESH3UXX7UXrum0o9o-8" value="Авторизация" style="ellipse;whiteSpace=wrap;html=1;" vertex="1" parent="1">
          <mxGeometry x="440" y="-130" width="120" height="80" as="geometry" />
        </mxCell>
        <mxCell id="EHZESH3UXX7UXrum0o9o-9" value="" style="endArrow=classic;html=1;rounded=0;entryX=1;entryY=1;entryDx=0;entryDy=0;exitX=0.25;exitY=0.1;exitDx=0;exitDy=0;exitPerimeter=0;" edge="1" parent="1" source="EHZESH3UXX7UXrum0o9o-6" target="EHZESH3UXX7UXrum0o9o-7">
          <mxGeometry width="50" height="50" relative="1" as="geometry">
            <mxPoint x="390" y="180" as="sourcePoint" />
            <mxPoint x="440" y="130" as="targetPoint" />
          </mxGeometry>
        </mxCell>
        <mxCell id="EHZESH3UXX7UXrum0o9o-10" value="" style="endArrow=classic;html=1;rounded=0;entryX=0;entryY=1;entryDx=0;entryDy=0;exitX=0.75;exitY=0.1;exitDx=0;exitDy=0;exitPerimeter=0;" edge="1" parent="1" source="EHZESH3UXX7UXrum0o9o-6" target="EHZESH3UXX7UXrum0o9o-8">
          <mxGeometry width="50" height="50" relative="1" as="geometry">
            <mxPoint x="475.57" y="67.72" as="sourcePoint" />
            <mxPoint x="419.57" y="-30.28" as="targetPoint" />
          </mxGeometry>
        </mxCell>
        <mxCell id="EHZESH3UXX7UXrum0o9o-11" value="" style="endArrow=block;html=1;rounded=0;endFill=0;exitX=0.5;exitY=0;exitDx=0;exitDy=0;exitPerimeter=0;" edge="1" parent="1" source="EHZESH3UXX7UXrum0o9o-2">
          <mxGeometry width="50" height="50" relative="1" as="geometry">
            <mxPoint x="230" y="230" as="sourcePoint" />
            <mxPoint x="390" y="120" as="targetPoint" />
          </mxGeometry>
        </mxCell>
        <mxCell id="EHZESH3UXX7UXrum0o9o-12" value="" style="endArrow=block;html=1;rounded=0;endFill=0;exitX=0;exitY=0.3333333333333333;exitDx=0;exitDy=0;exitPerimeter=0;entryX=1;entryY=0.3333333333333333;entryDx=0;entryDy=0;entryPerimeter=0;" edge="1" parent="1" source="EHZESH3UXX7UXrum0o9o-1" target="EHZESH3UXX7UXrum0o9o-2">
          <mxGeometry width="50" height="50" relative="1" as="geometry">
            <mxPoint x="505" y="315" as="sourcePoint" />
            <mxPoint x="350" y="205" as="targetPoint" />
          </mxGeometry>
        </mxCell>
        <mxCell id="EHZESH3UXX7UXrum0o9o-13" value="Создание проекта" style="ellipse;whiteSpace=wrap;html=1;" vertex="1" parent="1">
          <mxGeometry x="680" y="400" width="120" height="80" as="geometry" />
        </mxCell>
        <mxCell id="EHZESH3UXX7UXrum0o9o-14" value="Приглашение пользователей" style="ellipse;whiteSpace=wrap;html=1;" vertex="1" parent="1">
          <mxGeometry x="530" y="400" width="120" height="80" as="geometry" />
        </mxCell>
        <mxCell id="EHZESH3UXX7UXrum0o9o-15" value="Просмотр списка проектов" style="ellipse;whiteSpace=wrap;html=1;" vertex="1" parent="1">
          <mxGeometry x="380" y="400" width="120" height="80" as="geometry" />
        </mxCell>
        <mxCell id="EHZESH3UXX7UXrum0o9o-16" value="" style="endArrow=classic;html=1;rounded=0;entryX=1;entryY=0;entryDx=0;entryDy=0;" edge="1" parent="1" target="EHZESH3UXX7UXrum0o9o-15">
          <mxGeometry width="50" height="50" relative="1" as="geometry">
            <mxPoint x="560" y="320" as="sourcePoint" />
            <mxPoint x="485.5" y="279.72" as="targetPoint" />
          </mxGeometry>
        </mxCell>
        <mxCell id="EHZESH3UXX7UXrum0o9o-17" value="" style="endArrow=classic;html=1;rounded=0;entryX=0.5;entryY=0;entryDx=0;entryDy=0;" edge="1" parent="1" target="EHZESH3UXX7UXrum0o9o-14">
          <mxGeometry width="50" height="50" relative="1" as="geometry">
            <mxPoint x="560" y="320" as="sourcePoint" />
            <mxPoint x="525.79" y="412" as="targetPoint" />
          </mxGeometry>
        </mxCell>
        <mxCell id="EHZESH3UXX7UXrum0o9o-18" value="" style="endArrow=classic;html=1;rounded=0;entryX=0.5;entryY=0;entryDx=0;entryDy=0;" edge="1" parent="1" target="EHZESH3UXX7UXrum0o9o-13">
          <mxGeometry width="50" height="50" relative="1" as="geometry">
            <mxPoint x="560" y="320" as="sourcePoint" />
            <mxPoint x="660" y="400" as="targetPoint" />
          </mxGeometry>
        </mxCell>
        <mxCell id="EHZESH3UXX7UXrum0o9o-19" value="Создание, редактирование и удаление задач" style="ellipse;whiteSpace=wrap;html=1;" vertex="1" parent="1">
          <mxGeometry x="-110" y="300" width="120" height="80" as="geometry" />
        </mxCell>
        <mxCell id="EHZESH3UXX7UXrum0o9o-20" value="Назначение исполнителя задачи" style="ellipse;whiteSpace=wrap;html=1;" vertex="1" parent="1">
          <mxGeometry x="-110" y="420" width="120" height="80" as="geometry" />
        </mxCell>
        <mxCell id="EHZESH3UXX7UXrum0o9o-21" value="Установка сроков выполнения задачи" style="ellipse;whiteSpace=wrap;html=1;" vertex="1" parent="1">
          <mxGeometry x="-110" y="530" width="120" height="80" as="geometry" />
        </mxCell>
        <mxCell id="EHZESH3UXX7UXrum0o9o-23" value="Изменение статуса задачи" style="ellipse;whiteSpace=wrap;html=1;" vertex="1" parent="1">
          <mxGeometry x="-110" y="650" width="120" height="80" as="geometry" />
        </mxCell>
        <mxCell id="EHZESH3UXX7UXrum0o9o-24" value="Комментарии к задачам" style="ellipse;whiteSpace=wrap;html=1;" vertex="1" parent="1">
          <mxGeometry x="-110" y="750" width="120" height="80" as="geometry" />
        </mxCell>
        <mxCell id="EHZESH3UXX7UXrum0o9o-26" value="Управление задачами" style="ellipse;whiteSpace=wrap;html=1;" vertex="1" parent="1">
          <mxGeometry x="90" y="550" width="120" height="80" as="geometry" />
        </mxCell>
        <mxCell id="EHZESH3UXX7UXrum0o9o-27" value="&amp;lt;&amp;lt;extend&amp;gt;&amp;gt;" style="html=1;verticalAlign=bottom;labelBackgroundColor=none;endArrow=open;endFill=0;dashed=1;rounded=0;entryX=1;entryY=0.5;entryDx=0;entryDy=0;exitX=0;exitY=0.5;exitDx=0;exitDy=0;" edge="1" parent="1" source="EHZESH3UXX7UXrum0o9o-26" target="EHZESH3UXX7UXrum0o9o-19">
          <mxGeometry width="160" relative="1" as="geometry">
            <mxPoint x="330" y="560" as="sourcePoint" />
            <mxPoint x="490" y="560" as="targetPoint" />
          </mxGeometry>
        </mxCell>
        <mxCell id="EHZESH3UXX7UXrum0o9o-28" value="&amp;lt;&amp;lt;extend&amp;gt;&amp;gt;" style="html=1;verticalAlign=bottom;labelBackgroundColor=none;endArrow=open;endFill=0;dashed=1;rounded=0;entryX=1;entryY=0.5;entryDx=0;entryDy=0;exitX=0;exitY=0.5;exitDx=0;exitDy=0;" edge="1" parent="1" source="EHZESH3UXX7UXrum0o9o-26" target="EHZESH3UXX7UXrum0o9o-20">
          <mxGeometry width="160" relative="1" as="geometry">
            <mxPoint x="100" y="715" as="sourcePoint" />
            <mxPoint x="20" y="465" as="targetPoint" />
          </mxGeometry>
        </mxCell>
        <mxCell id="EHZESH3UXX7UXrum0o9o-29" value="&amp;lt;&amp;lt;extend&amp;gt;&amp;gt;" style="html=1;verticalAlign=bottom;labelBackgroundColor=none;endArrow=open;endFill=0;dashed=1;rounded=0;entryX=1;entryY=0.5;entryDx=0;entryDy=0;exitX=0;exitY=0.5;exitDx=0;exitDy=0;" edge="1" parent="1" source="EHZESH3UXX7UXrum0o9o-26" target="EHZESH3UXX7UXrum0o9o-21">
          <mxGeometry width="160" relative="1" as="geometry">
            <mxPoint x="110" y="690" as="sourcePoint" />
            <mxPoint x="30" y="560" as="targetPoint" />
          </mxGeometry>
        </mxCell>
        <mxCell id="EHZESH3UXX7UXrum0o9o-30" value="&amp;lt;&amp;lt;extend&amp;gt;&amp;gt;" style="html=1;verticalAlign=bottom;labelBackgroundColor=none;endArrow=open;endFill=0;dashed=1;rounded=0;entryX=1;entryY=0.5;entryDx=0;entryDy=0;exitX=0;exitY=0.5;exitDx=0;exitDy=0;" edge="1" parent="1" source="EHZESH3UXX7UXrum0o9o-26" target="EHZESH3UXX7UXrum0o9o-23">
          <mxGeometry width="160" relative="1" as="geometry">
            <mxPoint x="100" y="650" as="sourcePoint" />
            <mxPoint x="20" y="630" as="targetPoint" />
          </mxGeometry>
        </mxCell>
        <mxCell id="EHZESH3UXX7UXrum0o9o-31" value="&amp;lt;&amp;lt;extend&amp;gt;&amp;gt;" style="html=1;verticalAlign=bottom;labelBackgroundColor=none;endArrow=open;endFill=0;dashed=1;rounded=0;entryX=1;entryY=0.5;entryDx=0;entryDy=0;exitX=0;exitY=0.5;exitDx=0;exitDy=0;" edge="1" parent="1" source="EHZESH3UXX7UXrum0o9o-26" target="EHZESH3UXX7UXrum0o9o-24">
          <mxGeometry width="160" relative="1" as="geometry">
            <mxPoint x="100" y="680" as="sourcePoint" />
            <mxPoint x="20" y="780" as="targetPoint" />
          </mxGeometry>
        </mxCell>
        <mxCell id="EHZESH3UXX7UXrum0o9o-32" value="" style="endArrow=classic;html=1;rounded=0;entryX=0.5;entryY=0;entryDx=0;entryDy=0;" edge="1" parent="1" target="EHZESH3UXX7UXrum0o9o-26">
          <mxGeometry width="50" height="50" relative="1" as="geometry">
            <mxPoint x="230" y="320" as="sourcePoint" />
            <mxPoint x="139.57" y="492" as="targetPoint" />
          </mxGeometry>
        </mxCell>
        <mxCell id="EHZESH3UXX7UXrum0o9o-33" value="Просмотр задач" style="ellipse;whiteSpace=wrap;html=1;" vertex="1" parent="1">
          <mxGeometry x="260" y="550" width="120" height="80" as="geometry" />
        </mxCell>
        <mxCell id="EHZESH3UXX7UXrum0o9o-34" value="" style="endArrow=classic;html=1;rounded=0;entryX=0.5;entryY=0;entryDx=0;entryDy=0;" edge="1" parent="1" target="EHZESH3UXX7UXrum0o9o-33">
          <mxGeometry width="50" height="50" relative="1" as="geometry">
            <mxPoint x="230" y="320" as="sourcePoint" />
            <mxPoint x="210" y="555" as="targetPoint" />
          </mxGeometry>
        </mxCell>
        <mxCell id="EHZESH3UXX7UXrum0o9o-35" value="Фильтрация задач" style="ellipse;whiteSpace=wrap;html=1;" vertex="1" parent="1">
          <mxGeometry x="260" y="730" width="120" height="80" as="geometry" />
        </mxCell>
        <mxCell id="EHZESH3UXX7UXrum0o9o-36" value="&amp;lt;&amp;lt;extend&amp;gt;&amp;gt;" style="html=1;verticalAlign=bottom;labelBackgroundColor=none;endArrow=open;endFill=0;dashed=1;rounded=0;entryX=0.5;entryY=0;entryDx=0;entryDy=0;exitX=0.5;exitY=1;exitDx=0;exitDy=0;" edge="1" parent="1" source="EHZESH3UXX7UXrum0o9o-33" target="EHZESH3UXX7UXrum0o9o-35">
          <mxGeometry width="160" relative="1" as="geometry">
            <mxPoint x="265" y="640" as="sourcePoint" />
            <mxPoint x="185" y="840" as="targetPoint" />
          </mxGeometry>
        </mxCell>
      </root>
    </mxGraphModel>
  </diagram>
</mxfile>
